# xmcd
#
# Track frame offsets:
#	150
#	17364
#	30206
#	42210
#	57100
#	70914
#	104498
#	133538
#	148219
#	162604
#	176361
#	190729
#	198783
#	209815
#	226229
#	239804
#	257524
#	277682
#	290647
#	306961
#	315495
#
# Disc length: 4334 seconds
#
# Revision: 0
# Processed by: cddbd v1.5.1PL0 Copyright (c) Steve Scherf et al.
# Submitted via: dBpowerAMP V4.0
#
DISCID=2c10ec15
DTITLE=Anthony Ryan - Live in Hotel Vedersø Klit
DYEAR=1900
DGENRE=Country
TTITLE0=Last Thing On My Mind
TTITLE1=Halleluja
TTITLE2=Boomber Story
TTITLE3=Sweet Lips
TTITLE4=Pamela Brown
TTITLE5=American Pie
TTITLE6=Looking to The Past
TTITLE7=Father And Son
TTITLE8=When You Say Nothing At All
TTITLE9=If You Ever Change Your Mind
TTITLE10=Leroy Brown
TTITLE11=Love Potion no. 9
TTITLE12=Another Saturday Night
TTITLE13=Nights In White Satin
TTITLE14=Lokomotive Breath
TTITLE15=Browneyed Girl
TTITLE16=Operator
TTITLE17=Before You Accuse Me
TTITLE18=Louise
TTITLE19=Heartbreak Hotel
TTITLE20=Cactur In Bloom
EXTD=
EXTT0=
EXTT1=
EXTT2=
EXTT3=
EXTT4=
EXTT5=
EXTT6=
EXTT7=
EXTT8=
EXTT9=
EXTT10=
EXTT11=
EXTT12=
EXTT13=
EXTT14=
EXTT15=
EXTT16=
EXTT17=
EXTT18=
EXTT19=
EXTT20=
PLAYORDER=
